<mxfile host="www.draw.io" modified="2019-10-29T20:57:51.098Z" agent="Mozilla/5.0 (Windows NT 6.1; Win64; x64; rv:70.0) Gecko/20100101 Firefox/70.0" etag="vX-uMT50hzo6V1jkTgl9" version="12.1.8" type="github" pages="1">
  <diagram id="g_ra0QsFDLkrMLtNDbzg" name="Page-1">
    <mxGraphModel dx="782" dy="433" grid="1" gridSize="6" guides="1" tooltips="1" connect="1" arrows="1" fold="1" page="1" pageScale="1" pageWidth="1100" pageHeight="850" math="0" shadow="0">
      <root>
        <mxCell id="0"/>
        <mxCell id="1" parent="0"/>
        <mxCell id="goL7TFo5vbJw7yo4EG2R-1" value="" style="rounded=0;whiteSpace=wrap;html=1;" vertex="1" parent="1">
          <mxGeometry x="240" y="144" width="6" height="168" as="geometry"/>
        </mxCell>
        <mxCell id="goL7TFo5vbJw7yo4EG2R-2" value="" style="rounded=0;whiteSpace=wrap;html=1;" vertex="1" parent="1">
          <mxGeometry x="246" y="144" width="180" height="168" as="geometry"/>
        </mxCell>
        <mxCell id="goL7TFo5vbJw7yo4EG2R-3" value="" style="rounded=0;whiteSpace=wrap;html=1;" vertex="1" parent="1">
          <mxGeometry x="426" y="144" width="6" height="168" as="geometry"/>
        </mxCell>
        <mxCell id="goL7TFo5vbJw7yo4EG2R-4" value="" style="rounded=0;whiteSpace=wrap;html=1;" vertex="1" parent="1">
          <mxGeometry x="276" y="144" width="4" height="168" as="geometry"/>
        </mxCell>
        <mxCell id="goL7TFo5vbJw7yo4EG2R-6" value="" style="rounded=0;whiteSpace=wrap;html=1;" vertex="1" parent="1">
          <mxGeometry x="312" y="144" width="4" height="168" as="geometry"/>
        </mxCell>
        <mxCell id="goL7TFo5vbJw7yo4EG2R-7" value="" style="rounded=0;whiteSpace=wrap;html=1;" vertex="1" parent="1">
          <mxGeometry x="348" y="144" width="4" height="168" as="geometry"/>
        </mxCell>
        <mxCell id="goL7TFo5vbJw7yo4EG2R-8" value="" style="rounded=0;whiteSpace=wrap;html=1;" vertex="1" parent="1">
          <mxGeometry x="387" y="144" width="4" height="168" as="geometry"/>
        </mxCell>
        <mxCell id="goL7TFo5vbJw7yo4EG2R-9" value="" style="endArrow=none;html=1;" edge="1" parent="1">
          <mxGeometry width="50" height="50" relative="1" as="geometry">
            <mxPoint x="240" y="146" as="sourcePoint"/>
            <mxPoint x="336" y="72" as="targetPoint"/>
          </mxGeometry>
        </mxCell>
        <mxCell id="goL7TFo5vbJw7yo4EG2R-10" value="" style="endArrow=none;html=1;" edge="1" parent="1">
          <mxGeometry width="50" height="50" relative="1" as="geometry">
            <mxPoint x="240" y="140" as="sourcePoint"/>
            <mxPoint x="336" y="66" as="targetPoint"/>
          </mxGeometry>
        </mxCell>
        <mxCell id="goL7TFo5vbJw7yo4EG2R-11" value="" style="endArrow=none;html=1;" edge="1" parent="1">
          <mxGeometry width="50" height="50" relative="1" as="geometry">
            <mxPoint x="432" y="144" as="sourcePoint"/>
            <mxPoint x="336" y="66" as="targetPoint"/>
          </mxGeometry>
        </mxCell>
        <mxCell id="goL7TFo5vbJw7yo4EG2R-12" value="" style="endArrow=none;html=1;exitX=0.994;exitY=0.006;exitDx=0;exitDy=0;exitPerimeter=0;" edge="1" parent="1" source="goL7TFo5vbJw7yo4EG2R-2">
          <mxGeometry width="50" height="50" relative="1" as="geometry">
            <mxPoint x="492" y="152" as="sourcePoint"/>
            <mxPoint x="336" y="72" as="targetPoint"/>
          </mxGeometry>
        </mxCell>
        <mxCell id="goL7TFo5vbJw7yo4EG2R-13" value="" style="line;strokeWidth=1;direction=south;html=1;" vertex="1" parent="1">
          <mxGeometry x="235" y="78" width="10" height="70" as="geometry"/>
        </mxCell>
        <mxCell id="goL7TFo5vbJw7yo4EG2R-14" value="" style="line;strokeWidth=1;direction=south;html=1;" vertex="1" parent="1">
          <mxGeometry x="241" y="84" width="10" height="51" as="geometry"/>
        </mxCell>
        <mxCell id="goL7TFo5vbJw7yo4EG2R-15" value="" style="endArrow=none;html=1;" edge="1" parent="1">
          <mxGeometry width="50" height="50" relative="1" as="geometry">
            <mxPoint x="240" y="86" as="sourcePoint"/>
            <mxPoint x="330" y="72" as="targetPoint"/>
          </mxGeometry>
        </mxCell>
        <mxCell id="goL7TFo5vbJw7yo4EG2R-16" value="" style="endArrow=none;html=1;" edge="1" parent="1">
          <mxGeometry width="50" height="50" relative="1" as="geometry">
            <mxPoint x="240" y="78" as="sourcePoint"/>
            <mxPoint x="336" y="66" as="targetPoint"/>
          </mxGeometry>
        </mxCell>
        <mxCell id="goL7TFo5vbJw7yo4EG2R-17" value="" style="line;strokeWidth=1;html=1;" vertex="1" parent="1">
          <mxGeometry x="246" y="84" width="60" height="10" as="geometry"/>
        </mxCell>
        <mxCell id="goL7TFo5vbJw7yo4EG2R-18" value="" style="line;strokeWidth=1;html=1;" vertex="1" parent="1">
          <mxGeometry x="246" y="96" width="46" height="10" as="geometry"/>
        </mxCell>
        <mxCell id="goL7TFo5vbJw7yo4EG2R-19" value="" style="line;strokeWidth=1;html=1;" vertex="1" parent="1">
          <mxGeometry x="245" y="109.5" width="28" height="10" as="geometry"/>
        </mxCell>
        <mxCell id="goL7TFo5vbJw7yo4EG2R-21" value="" style="line;strokeWidth=1;html=1;" vertex="1" parent="1">
          <mxGeometry x="314" y="84" width="42" height="10" as="geometry"/>
        </mxCell>
        <mxCell id="goL7TFo5vbJw7yo4EG2R-22" value="" style="line;strokeWidth=1;html=1;" vertex="1" parent="1">
          <mxGeometry x="298" y="96" width="74" height="10" as="geometry"/>
        </mxCell>
        <mxCell id="goL7TFo5vbJw7yo4EG2R-23" value="" style="line;strokeWidth=1;html=1;" vertex="1" parent="1">
          <mxGeometry x="280" y="110" width="110" height="10" as="geometry"/>
        </mxCell>
        <mxCell id="goL7TFo5vbJw7yo4EG2R-24" value="" style="line;strokeWidth=1;html=1;" vertex="1" parent="1">
          <mxGeometry x="246" y="122" width="10" height="10" as="geometry"/>
        </mxCell>
        <mxCell id="goL7TFo5vbJw7yo4EG2R-27" value="" style="line;strokeWidth=1;html=1;" vertex="1" parent="1">
          <mxGeometry x="264" y="122" width="138" height="10" as="geometry"/>
        </mxCell>
      </root>
    </mxGraphModel>
  </diagram>
</mxfile>
